<svg width="432" height="257" viewBox="0 0 432 257" fill="none" xmlns="http://www.w3.org/2000/svg">
<g clip-path="url(#clip0_229_197)">
<g clip-path="url(#clip1_229_197)">
<g clip-path="url(#clip2_229_197)">
<path d="M128.719 0.880096H0.880249V128.533H128.719V0.880096Z" fill="url(#paint0_linear_229_197)"/>
<path d="M-0.00115967 129.411V0H129.598V128.533V129.411H-0.00115967ZM128.719 128.533V127.656V128.533ZM1.7569 127.656H127.838V1.75785H1.7569V127.656Z" fill="#072508"/>
<path d="M20.438 30.0589H53.8787C65.5557 30.0589 74.9344 35.9375 74.9344 47.7005C74.9344 55.4751 70.6471 60.5555 62.8589 62.0489V62.2502C72.6407 63.2473 78.127 71.3203 78.127 79.7912C78.127 97.5311 65.4538 101.022 50.6826 101.022H20.438V30.0589ZM33.8145 58.5648H49.6851C55.5723 58.5648 60.966 56.2698 60.966 49.4923C60.966 44.1088 57.4687 40.6235 49.6851 40.6235H33.8145V58.5648ZM33.8145 89.2627H51.1818C59.2666 89.2627 64.1563 86.7664 64.1563 79.3921C64.1563 71.4174 59.1658 68.5279 51.081 68.5279H33.8145V89.2627Z" fill="white"/>
<path d="M86.506 50.5901H98.6858V57.5641H98.8851C101.781 51.785 107.368 49.3952 114.456 49.3952V61.7551C106.169 61.7551 98.6858 65.6406 98.6858 76.602V101.023H86.506V50.5901Z" fill="white"/>
<path d="M101.117 18.4702H102.163C103.232 18.4702 104.065 17.9787 104.065 16.847C104.065 15.631 103.36 14.8855 102.142 14.8855C100.668 14.8855 100.197 16.1659 100.091 17.3818L97.2477 16.7826C97.7165 13.9668 99.5121 12.4945 102.354 12.4945C104.725 12.4945 106.928 13.7538 106.928 16.3777C106.928 18.0641 106.115 19.025 104.533 19.4287V19.4721C106.351 19.8969 107.269 21.2006 107.292 23.0568C107.292 26.0669 104.813 27.5169 102.034 27.5169C99.1909 27.5169 96.991 26.1956 96.991 22.5243H99.7266C99.7266 24.0808 100.517 25.1283 102.119 25.1283C103.488 25.1283 104.3 24.2096 104.3 22.8883C104.3 21.265 103.274 20.7325 102.162 20.7325H101.115V18.4702H101.117Z" fill="white"/>
<path d="M110.31 12.7508H118.43L118.153 15.2694H112.533L112.085 18.2982C112.831 17.6381 113.73 17.2742 114.692 17.2742C117.79 17.2742 119.266 19.5575 119.266 22.2458C119.266 25.5765 116.936 27.517 113.859 27.517C111.145 27.517 108.921 26.1734 108.793 23.2499L111.786 23.017C111.807 24.233 112.598 25.257 113.88 25.257C115.631 25.257 116.275 23.7848 116.275 22.2692C116.275 20.3486 115.29 19.5376 113.837 19.5376C112.768 19.5376 112.17 20.0057 111.765 20.9256L109.286 20.7337L110.31 12.7508Z" fill="white"/>
<path d="M151.053 74.8992C147.606 74.8992 147.212 74.9975 147.212 77.6518C147.212 85.6183 153.711 92.8954 162.574 92.8954C166.218 92.8954 169.567 91.814 172.817 89.5518C175.082 87.9788 176.56 86.1098 178.529 86.1098C180.005 86.1098 181.091 87.1936 181.091 88.5699C181.091 90.0445 179.513 92.5034 176.462 94.9611C171.044 99.3861 166.022 101.65 159.228 101.65C144.945 101.65 134.31 90.6343 134.31 76.375C134.31 60.7381 145.142 49.5286 160.409 49.5286C173.311 49.5286 181.386 57.3945 181.386 69.8843C181.386 74.5059 180.202 74.9015 175.771 74.9015H151.742C151.446 74.8992 151.249 74.8992 151.053 74.8992ZM167.005 69.1938C169.37 69.1938 170.157 68.8989 170.157 67.3259C170.157 61.129 165.528 55.9175 158.732 55.9175C152.134 55.9175 147.703 61.129 147.703 67.3259C147.703 68.8989 148.392 69.1938 150.755 69.1938H167.005Z" fill="#154F3C"/>
<path d="M230.321 92.5022C233.278 93.387 235.05 93.387 235.05 95.4515C235.05 98.4019 230.223 101.747 223.822 101.747C220.078 101.747 217.518 96.5352 216.533 96.5352C214.956 96.5352 210.623 101.747 201.858 101.747C192.109 101.747 185.509 95.5521 185.509 86.4048C185.509 75.8834 193.389 69.3916 207.572 69.3916C210.132 69.3916 213.283 69.6865 216.927 70.2764V64.9654C216.927 59.0657 214.267 55.8204 209.54 55.8204C206.191 55.8204 203.435 57.295 200.872 60.2454C198.803 62.6071 197.524 65.3586 193.387 65.3586C190.726 65.3586 189.054 63.4907 189.054 60.6386C189.054 54.9356 196.638 49.5275 209.834 49.5275C217.418 49.5275 222.736 51.5919 225.592 55.2305C228.154 58.4759 228.351 63.3936 228.351 70.4741V86.6002C228.352 90.0433 228.844 92.109 230.321 92.5022ZM209.638 75.784C202.349 75.784 198.213 79.2259 198.213 84.8307C198.213 90.0422 201.857 93.5836 207.866 93.5836C214.66 93.5836 216.926 90.7303 216.926 84.0454V76.6687C214.267 76.0789 211.806 75.784 209.638 75.784Z" fill="#154F3C"/>
<path d="M254.989 66.7361C254.989 68.8006 255.088 69.7836 255.974 69.7836C256.466 69.7836 258.536 68.5056 261.687 65.6535C265.725 61.9166 267.989 59.6556 267.989 58.4759C267.989 57.1955 264.247 57.2938 264.247 54.5424C264.247 51.1987 268.285 50.5106 276.657 50.5106C282.764 50.5106 285.815 51.6903 285.815 54.2474C285.815 58.0826 281.088 56.9018 276.951 59.3606C274.982 60.5403 272.815 62.8026 270.058 65.5552C268.677 66.9339 267.89 67.8187 267.89 68.4085C267.89 69.3916 269.662 71.6538 272.813 75.7851C279.807 84.8318 284.534 90.0445 286.899 91.8152C290.246 94.1746 294.579 93.3882 294.579 96.7318C294.579 99.6811 291.429 100.764 284.535 100.764C281.678 100.764 279.808 100.469 279.217 100.272C276.458 99.2867 274.195 95.7487 270.158 90.6332C261.49 79.6203 256.958 73.8166 255.974 73.8166C255.088 73.8166 254.989 74.6054 254.989 76.4733C254.989 77.0631 254.989 77.7513 254.989 78.6361C254.989 86.8975 255.186 91.6198 256.367 92.9961C257.748 94.569 261.49 94.0775 261.49 97.2245C261.49 100.078 257.846 100.765 249.967 100.765C241.201 100.765 237.459 100.273 237.459 96.9296C237.459 94.6662 239.526 94.6662 241.201 93.7826C243.269 92.6029 243.662 89.0626 243.662 82.3741C243.662 78.6372 243.564 74.1127 243.564 68.4097C243.564 66.2469 243.564 64.1813 243.564 62.2151C243.564 47.5613 243.466 41.9355 242.186 40.4609C241.398 39.5761 239.722 39.3795 237.656 38.689C236.078 38.1974 235.389 37.8042 235.389 36.3296C235.389 34.2639 237.262 33.4775 240.906 32.1995C246.617 30.231 250.95 29.6411 252.821 29.6411C254.989 29.6411 255.58 30.9215 255.58 33.8695C255.58 39.081 254.989 44.3125 254.989 54.1491V66.7361Z" fill="#154F3C"/>
<path d="M314.578 84.3391C314.578 89.6489 314.873 92.6988 316.547 93.5824C318.814 94.8604 320.978 94.5655 320.978 97.221C320.978 100.074 317.433 100.761 309.553 100.761C300.788 100.761 296.948 100.27 296.948 96.9261C296.948 94.6627 299.018 94.6626 300.689 93.779C302.661 92.6977 303.054 90.2388 303.054 85.9109C303.054 83.8464 302.956 81.4858 302.956 78.5342C302.956 76.6664 302.956 74.898 302.956 73.3227C302.956 65.258 302.858 61.0295 301.182 60.1448C298.721 58.8667 295.767 59.0634 295.767 56.6045C295.767 55.0316 297.146 53.9502 299.804 52.8676C306.6 50.2133 311.721 49.5263 312.705 49.5263C314.676 49.5263 315.267 50.9026 315.267 53.7547C315.267 55.0327 315.267 56.8023 315.169 58.9662L314.775 71.751C314.676 76.0789 314.578 80.3073 314.578 84.3391ZM308.077 31.2047C312.607 31.2047 315.661 34.058 315.661 37.5971C315.661 41.1373 312.312 44.1849 307.486 44.1849C303.054 44.1849 300 41.5306 300 38.0886C300.001 34.45 303.448 31.2047 308.077 31.2047Z" fill="#154F3C"/>
<path d="M357.742 49.5263C362.861 49.5263 367.491 51.984 370.347 55.3276C374.288 60.0476 374.582 65.849 374.582 73.7171C374.582 77.454 374.582 79.7174 374.582 80.5039C374.582 82.8633 374.483 84.8306 374.483 86.6002C374.483 90.5337 374.78 92.6988 376.75 93.7802C378.425 94.665 380.494 94.665 380.494 96.9272C380.494 100.271 376.75 100.664 368.182 100.664C360.106 100.664 356.364 100.173 356.364 97.2222C356.364 94.5655 358.528 94.8604 360.794 93.5836C362.567 92.6005 362.861 89.2569 362.861 83.1606C362.861 67.3271 362.664 59.164 353.507 59.164C349.962 59.164 346.414 61.4251 344.643 65.0637C342.773 68.8005 342.674 75.3907 342.674 84.9301C342.674 89.8467 342.773 92.6017 344.544 93.5848C346.811 94.8628 348.976 94.5678 348.976 97.2233C348.976 100.077 345.431 100.764 337.55 100.764C328.785 100.764 324.945 100.272 324.945 96.9284C324.945 94.665 327.015 94.665 328.686 93.7814C330.658 92.7 331.052 90.2411 331.052 85.9132C331.052 83.8487 330.954 81.4882 330.954 78.5366C330.954 76.6687 330.954 74.9003 330.954 73.3251C330.954 65.2603 330.854 61.0319 329.178 60.1471C326.717 58.8691 323.763 59.0657 323.763 56.6068C323.763 55.0339 325.14 53.9525 327.801 52.8699C334.203 50.4122 338.929 49.7241 340.209 49.7241C342.08 49.7241 342.871 50.6088 342.871 52.8699V55.6249C342.871 55.9198 342.871 56.1164 342.871 56.2147C342.871 56.608 342.871 56.8046 343.264 56.8046C343.462 56.8046 343.657 56.7063 343.757 56.608L344.937 55.5266C347.893 52.8688 350.551 49.5263 357.742 49.5263Z" fill="#154F3C"/>
<path d="M384.33 68.5056C384.33 57.6871 393.391 49.5263 406.094 49.5263C409.541 49.5263 413.876 50.3128 419.095 51.4925C421.756 51.4925 424.609 50.1162 428.451 47.4607C429.828 48.3454 430.619 49.5275 430.619 50.706C430.619 53.4586 428.548 56.2124 424.511 58.2793C425.89 60.9336 426.582 63.4908 426.582 66.4423C426.582 77.2586 417.913 85.1268 404.518 85.1268C400.876 85.1268 397.528 84.6352 394.474 83.5538C393.095 85.0285 392.406 86.3065 392.406 87.4873C392.406 90.7303 395.654 92.109 402.155 92.109C407.178 92.109 412.299 91.0253 417.619 91.0253C426.974 91.0253 431.996 94.9588 431.996 101.942C431.996 112.171 420.966 120.531 404.224 120.531C390.633 120.531 381.966 114.041 381.966 107.252C381.966 103.613 384.331 101.156 389.058 98.3036C385.12 96.9273 382.951 94.2718 382.951 90.927C382.951 87.4873 385.414 84.2408 390.239 81.2904C386.299 77.9468 384.33 73.6188 384.33 68.5056ZM392.801 106.27C392.801 110.695 397.626 114.042 406.096 114.042C415.549 114.042 421.654 109.811 421.654 105.092C421.654 101.944 419.391 100.077 415.058 100.077C412.004 100.077 407.473 101.06 401.664 101.06C399.691 101.06 397.626 100.961 395.36 100.666C393.588 102.335 392.801 104.107 392.801 106.27ZM405.209 78.6337C410.821 78.6337 415.057 74.1104 415.057 67.326C415.057 60.3426 410.92 55.8192 405.308 55.8192C400.185 55.8192 396.049 60.4409 396.049 67.2276C396.049 74.2087 399.888 78.6337 405.209 78.6337Z" fill="#154F3C"/>
<path d="M299.629 223.348C299.629 222.463 299.432 222.07 299.232 222.07C298.937 222.07 297.757 223.152 295.492 224.823C291.653 227.676 287.908 229.15 283.674 229.15C271.461 229.15 262.5 219.611 262.5 204.86C262.5 188.534 272.544 177.326 286.726 177.326C293.622 177.326 297.856 180.276 298.643 180.276C299.234 180.276 299.332 179.392 299.332 177.816V174.257C299.332 169.733 298.741 168.256 296.182 167.372C293.818 166.586 291.751 166.586 291.751 164.322C291.751 162.16 293.819 161.176 297.955 159.702C302.286 158.128 305.734 157.538 308.196 157.538C310.461 157.538 311.347 158.718 311.347 161.668C311.347 163.34 310.756 172.113 310.756 192.763C310.756 209.579 310.854 218.136 312.235 219.119C314.401 220.692 318.34 219.708 318.34 222.659C318.34 225.018 315.68 225.806 310.559 227.477C307.112 228.657 303.565 229.05 302.286 229.05C300.415 229.05 299.629 228.067 299.629 225.807V223.348ZM299.135 195.025C299.135 192.272 299.135 190.402 298.151 189.124C296.084 186.37 291.85 184.112 287.516 184.112C280.325 184.112 275.303 190.304 275.303 201.124C275.303 212.825 281.014 220.103 288.205 220.103C295.196 220.103 299.135 216.268 299.135 208.697V195.025Z" fill="#154F3C"/>
<path d="M256.58 128.469H128.736V256.123H256.58V128.469Z" fill="url(#paint1_linear_229_197)"/>
<path d="M127.854 257V127.591H257.459V256.123V256.999H127.854V257ZM256.58 256.125V255.247V256.125ZM129.612 255.247H255.701L255.698 129.348H129.612V255.247Z" fill="#072508"/>
<path d="M138.302 157.65H171.734C183.414 157.65 192.795 163.531 192.795 175.291C192.795 183.064 188.503 188.141 180.715 189.639V189.839C190.499 190.834 195.987 198.906 195.987 207.374C195.987 225.117 183.313 228.61 168.538 228.61H138.301V157.65H138.302ZM151.675 186.153H167.543C173.428 186.153 178.822 183.86 178.822 177.086C178.822 171.705 175.327 168.214 167.543 168.214H151.675V186.153ZM151.675 216.847H169.036C177.123 216.847 182.018 214.355 182.018 206.979C182.018 199.007 177.025 196.119 168.94 196.119H151.676V216.847H151.675Z" fill="white"/>
<path d="M246.588 220.137C246.588 225.319 247.785 227.513 248.481 228.61H235.607C234.812 227.413 234.412 225.318 234.412 224.022C229.721 227.809 224.228 229.801 217.939 229.801C208.358 229.801 200.773 223.724 200.773 213.961C200.773 204.09 208.657 199.701 216.144 198.207L221.233 197.215C225.626 196.318 231.317 195.32 234.412 194.224V192.73C234.412 187.746 230.12 186.353 224.827 186.353C217.742 186.353 215.443 188.444 215.443 193.928L203.267 193.427C203.267 181.569 213.746 176.99 224.827 176.99C235.711 176.99 246.587 179.182 246.587 193.528V220.137H246.588ZM234.412 203.393C232.819 204.191 230.818 204.789 228.62 205.185L221.932 206.583C217.342 207.48 213.552 208.773 213.552 213.557C213.552 217.347 217.041 219.838 221.436 219.838C227.125 219.838 234.413 217.047 234.413 210.572V203.393H234.412Z" fill="white"/>
<path d="M225.857 139.499H233.979L233.7 142.017H228.08L227.631 145.048C228.38 144.386 229.277 144.023 230.239 144.023C233.339 144.023 234.812 146.306 234.812 148.997C234.812 152.324 232.482 154.267 229.406 154.267C226.691 154.267 224.468 152.921 224.34 149.998L227.332 149.764C227.354 150.98 228.145 152.004 229.427 152.004C231.18 152.004 231.821 150.533 231.821 149.017C231.821 147.096 230.837 146.285 229.384 146.285C228.317 146.285 227.717 146.754 227.311 147.673L224.833 147.482L225.857 139.499Z" fill="white"/>
<path d="M243.577 143.298C243.493 142.274 242.83 141.634 241.846 141.634C239.771 141.634 239.303 144.341 239.303 146.049H239.346C239.708 145.516 240.543 144.706 242.187 144.706C244.901 144.706 246.484 146.648 246.484 149.486C246.484 152.176 244.517 154.267 241.633 154.267C237.4 154.267 236.438 150.489 236.438 147.117C236.438 142.529 238.232 139.242 241.866 139.242C244.304 139.242 245.927 140.502 246.335 142.933L243.577 143.298ZM239.516 149.486C239.516 150.979 240.265 151.876 241.634 151.876C243 151.876 243.749 150.979 243.749 149.486C243.749 147.993 243 147.096 241.634 147.096C240.265 147.097 239.516 147.993 239.516 149.486Z" fill="white"/>
</g>
</g>
</g>
<defs>
<linearGradient id="paint0_linear_229_197" x1="0.881423" y1="0.881147" x2="128.534" y2="128.72" gradientUnits="userSpaceOnUse">
<stop stop-color="#15453D"/>
<stop offset="1" stop-color="#006C24"/>
</linearGradient>
<linearGradient id="paint1_linear_229_197" x1="256.58" y1="256.125" x2="128.923" y2="128.283" gradientUnits="userSpaceOnUse">
<stop stop-color="#15453D"/>
<stop offset="1" stop-color="#006C24"/>
</linearGradient>
<clipPath id="clip0_229_197">
<rect width="432" height="257" fill="white"/>
</clipPath>
<clipPath id="clip1_229_197">
<rect width="432" height="257" fill="white"/>
</clipPath>
<clipPath id="clip2_229_197">
<rect width="432" height="257" fill="white"/>
</clipPath>
</defs>
</svg>
